# Blender 4.2.1 LTS
# www.blender.org
o tray_centered
v -0.078099000 -0.011902000 0.003000000
v -0.078621000 -0.007729000 0.003000000
v -0.078621000 -0.007729000 -0.003000000
v -0.078921000 -0.003533000 -0.003000000
v -0.078921000 -0.003533000 0.003000000
v -0.078849000 0.004875000 0.003000000
v -0.078849000 0.004875000 -0.003000000
v -0.077885000 0.013229000 0.003000000
v -0.077885000 0.013229000 -0.003000000
v -0.076037000 0.021433000 0.003000000
v -0.076037000 0.021433000 -0.003000000
v -0.073328000 0.029393000 0.003000000
v -0.073328000 0.029393000 -0.003000000
v -0.069788000 0.037021000 0.003000000
v -0.069788000 0.037021000 -0.003000000
v -0.065458000 0.044230000 0.003000000
v -0.065458000 0.044230000 -0.003000000
v -0.060386000 0.050937000 0.003000000
v -0.060386000 0.050937000 -0.003000000
v -0.054629000 0.057067000 0.003000000
v -0.054629000 0.057067000 -0.003000000
v -0.048254000 0.062550000 0.003000000
v -0.048254000 0.062550000 -0.003000000
v -0.041332000 0.067325000 0.003000000
v -0.041332000 0.067325000 -0.003000000
v -0.033942000 0.071337000 0.003000000
v -0.033942000 0.071337000 -0.003000000
v -0.026166000 0.074541000 0.003000000
v -0.026166000 0.074541000 -0.003000000
v -0.018095000 0.076900000 0.003000000
v -0.018095000 0.076900000 -0.003000000
v -0.009819000 0.078387000 0.003000000
v -0.009819000 0.078387000 -0.003000000
v -0.001431000 0.078987000 0.003000000
v -0.001431000 0.078987000 -0.003000000
v 0.006973000 0.078692000 0.003000000
v 0.006973000 0.078692000 -0.003000000
v 0.015298000 0.077505000 0.003000000
v 0.015298000 0.077505000 -0.003000000
v 0.023449000 0.075440000 0.003000000
v 0.023449000 0.075440000 -0.003000000
v 0.031335000 0.072520000 0.003000000
v 0.031335000 0.072520000 -0.003000000
v 0.038866000 0.068778000 0.003000000
v 0.038866000 0.068778000 -0.003000000
v 0.045957000 0.064257000 0.003000000
v 0.045957000 0.064257000 -0.003000000
v 0.052526000 0.059009000 0.003000000
v 0.052526000 0.059009000 -0.003000000
v 0.058501000 0.053091000 0.003000000
v 0.058501000 0.053091000 -0.003000000
v 0.063813000 0.046572000 0.003000000
v 0.063813000 0.046572000 -0.003000000
v 0.068402000 0.039525000 0.003000000
v 0.068402000 0.039525000 -0.003000000
v 0.072215000 0.032031000 0.003000000
v 0.072215000 0.032031000 -0.003000000
v 0.075211000 0.024173000 0.003000000
v 0.075211000 0.024173000 -0.003000000
v 0.077354000 0.016042000 0.003000000
v 0.077354000 0.016042000 -0.003000000
v 0.078621000 0.007729000 0.003000000
v 0.078621000 0.007729000 -0.003000000
v 0.078997000 -0.000672000 0.003000000
v 0.078997000 -0.000672000 -0.003000000
v 0.078479000 -0.009065000 0.003000000
v 0.078479000 -0.009065000 -0.003000000
v 0.077070000 -0.017355000 0.003000000
v 0.077070000 -0.017355000 -0.003000000
v 0.074789000 -0.025449000 0.003000000
v 0.074789000 -0.025449000 -0.003000000
v 0.071660000 -0.033254000 0.003000000
v 0.071660000 -0.033254000 -0.003000000
v 0.067719000 -0.040683000 0.003000000
v 0.067719000 -0.040683000 -0.003000000
v 0.063011000 -0.047651000 0.003000000
v 0.063011000 -0.047651000 -0.003000000
v 0.057589000 -0.054078000 0.003000000
v 0.057589000 -0.054078000 -0.003000000
v 0.051515000 -0.059893000 0.003000000
v 0.051515000 -0.059893000 -0.003000000
v 0.044856000 -0.065030000 0.003000000
v 0.044856000 -0.065030000 -0.003000000
v 0.037690000 -0.069429000 0.003000000
v 0.037690000 -0.069429000 -0.003000000
v 0.030097000 -0.073042000 0.003000000
v 0.030097000 -0.073042000 -0.003000000
v 0.022163000 -0.075828000 0.003000000
v 0.022163000 -0.075828000 -0.003000000
v 0.013977000 -0.077754000 0.003000000
v 0.013977000 -0.077754000 -0.003000000
v 0.005633000 -0.078799000 0.003000000
v 0.005633000 -0.078799000 -0.003000000
v -0.002775000 -0.078951000 0.003000000
v -0.002775000 -0.078951000 -0.003000000
v -0.011151000 -0.078209000 0.003000000
v -0.011151000 -0.078209000 -0.003000000
v -0.019401000 -0.076581000 0.003000000
v -0.019401000 -0.076581000 -0.003000000
v -0.027431000 -0.074085000 0.003000000
v -0.027431000 -0.074085000 -0.003000000
v -0.035151000 -0.070749000 0.003000000
v -0.035151000 -0.070749000 -0.003000000
v -0.042471000 -0.066612000 0.003000000
v -0.042471000 -0.066612000 -0.003000000
v -0.049311000 -0.061720000 0.003000000
v -0.049311000 -0.061720000 -0.003000000
v -0.055592000 -0.056129000 0.003000000
v -0.055592000 -0.056129000 -0.003000000
v -0.061244000 -0.049902000 0.003000000
v -0.061244000 -0.049902000 -0.003000000
v -0.066201000 -0.043110000 0.003000000
v -0.066201000 -0.043110000 -0.003000000
v -0.070408000 -0.035829000 0.003000000
v -0.070408000 -0.035829000 -0.003000000
v -0.073818000 -0.028142000 0.003000000
v -0.073818000 -0.028142000 -0.003000000
v -0.076391000 -0.020136000 0.003000000
v -0.076391000 -0.020136000 -0.003000000
v -0.078099000 -0.011902000 -0.003000000
v 0.088474000 0.008697000 0.003000000
v 0.088900000 -0.000298000 0.004000000
v 0.088900000 -0.000298000 0.003000000
v 0.088413000 -0.009290000 0.004000000
v 0.088413000 -0.009290000 0.003000000
v 0.087020000 -0.018187000 0.004000000
v 0.087020000 -0.018187000 0.003000000
v 0.084733000 -0.026898000 0.004000000
v 0.084733000 -0.026898000 0.003000000
v 0.081577000 -0.035332000 0.004000000
v 0.081577000 -0.035332000 0.003000000
v 0.077585000 -0.043404000 0.004000000
v 0.077585000 -0.043404000 0.003000000
v 0.072795000 -0.051030000 0.004000000
v 0.072795000 -0.051030000 0.003000000
v 0.067259000 -0.058133000 0.004000000
v 0.067259000 -0.058133000 0.003000000
v 0.061033000 -0.064639000 0.004000000
v 0.061033000 -0.064639000 0.003000000
v 0.054180000 -0.070482000 0.004000000
v 0.054180000 -0.070482000 0.003000000
v 0.046772000 -0.075602000 0.004000000
v 0.046772000 -0.075602000 0.003000000
v 0.038883000 -0.079946000 0.004000000
v 0.038883000 -0.079946000 0.003000000
v 0.030596000 -0.083469000 0.004000000
v 0.030596000 -0.083469000 0.003000000
v 0.021994000 -0.086136000 0.004000000
v 0.021994000 -0.086136000 0.003000000
v 0.013167000 -0.087919000 0.004000000
v 0.013167000 -0.087919000 0.003000000
v 0.004205000 -0.088801000 0.004000000
v 0.004205000 -0.088801000 0.003000000
v -0.004800000 -0.088770000 0.004000000
v -0.004800000 -0.088770000 0.003000000
v -0.013756000 -0.087829000 0.004000000
v -0.013756000 -0.087829000 0.003000000
v -0.022571000 -0.085987000 0.004000000
v -0.022571000 -0.085987000 0.003000000
v -0.031155000 -0.083262000 0.004000000
v -0.031155000 -0.083262000 0.003000000
v -0.039418000 -0.079683000 0.004000000
v -0.039418000 -0.079683000 0.003000000
v -0.047278000 -0.075286000 0.004000000
v -0.047278000 -0.075286000 0.003000000
v -0.054652000 -0.070117000 0.004000000
v -0.054652000 -0.070117000 0.003000000
v -0.061465000 -0.064228000 0.004000000
v -0.061465000 -0.064228000 0.003000000
v -0.067647000 -0.057681000 0.004000000
v -0.067647000 -0.057681000 0.003000000
v -0.073136000 -0.050541000 0.004000000
v -0.073136000 -0.050541000 0.003000000
v -0.077873000 -0.042883000 0.004000000
v -0.077873000 -0.042883000 0.003000000
v -0.081813000 -0.034784000 0.004000000
v -0.081813000 -0.034784000 0.003000000
v -0.084912000 -0.026329000 0.004000000
v -0.084912000 -0.026329000 0.003000000
v -0.087140000 -0.017603000 0.004000000
v -0.087140000 -0.017603000 0.003000000
v -0.088473000 -0.008697000 0.004000000
v -0.088473000 -0.008697000 0.003000000
v -0.088899000 0.000298000 0.004000000
v -0.088899000 0.000298000 0.003000000
v -0.088413000 0.009290000 0.004000000
v -0.088413000 0.009290000 0.003000000
v -0.087020000 0.018187000 0.004000000
v -0.087020000 0.018187000 0.003000000
v -0.084733000 0.026898000 0.004000000
v -0.084733000 0.026898000 0.003000000
v -0.081578000 0.035332000 0.004000000
v -0.081578000 0.035332000 0.003000000
v -0.077584000 0.043404000 0.004000000
v -0.077584000 0.043404000 0.003000000
v -0.072795000 0.051030000 0.004000000
v -0.072795000 0.051030000 0.003000000
v -0.067259000 0.058133000 0.004000000
v -0.067259000 0.058133000 0.003000000
v -0.061033000 0.064639000 0.004000000
v -0.061033000 0.064639000 0.003000000
v -0.054180000 0.070482000 0.004000000
v -0.054180000 0.070482000 0.003000000
v -0.046772000 0.075602000 0.004000000
v -0.046772000 0.075602000 0.003000000
v -0.038883000 0.079946000 0.004000000
v -0.038883000 0.079946000 0.003000000
v -0.030596000 0.083469000 0.004000000
v -0.030596000 0.083469000 0.003000000
v -0.021994000 0.086136000 0.004000000
v -0.021994000 0.086136000 0.003000000
v -0.013168000 0.087919000 0.004000000
v -0.013168000 0.087919000 0.003000000
v -0.004205000 0.088801000 0.004000000
v -0.004205000 0.088801000 0.003000000
v 0.004801000 0.088770000 0.004000000
v 0.004801000 0.088770000 0.003000000
v 0.013757000 0.087829000 0.004000000
v 0.013757000 0.087829000 0.003000000
v 0.022572000 0.085987000 0.004000000
v 0.022572000 0.085987000 0.003000000
v 0.031155000 0.083262000 0.004000000
v 0.031155000 0.083262000 0.003000000
v 0.039418000 0.079683000 0.004000000
v 0.039418000 0.079683000 0.003000000
v 0.047277000 0.075286000 0.004000000
v 0.047277000 0.075286000 0.003000000
v 0.054651000 0.070117000 0.004000000
v 0.054651000 0.070117000 0.003000000
v 0.061465000 0.064228000 0.004000000
v 0.061465000 0.064228000 0.003000000
v 0.067647000 0.057681000 0.004000000
v 0.067647000 0.057681000 0.003000000
v 0.073136000 0.050541000 0.004000000
v 0.073136000 0.050541000 0.003000000
v 0.077874000 0.042883000 0.004000000
v 0.077874000 0.042883000 0.003000000
v 0.081812000 0.034784000 0.004000000
v 0.081812000 0.034784000 0.003000000
v 0.084912000 0.026329000 0.004000000
v 0.084912000 0.026329000 0.003000000
v 0.087140000 0.017603000 0.004000000
v 0.087140000 0.017603000 0.003000000
v 0.088474000 0.008697000 0.004000000
v 0.000000000 0.000000000 0.004000000
v -0.088473000 -0.008697000 -0.003000000
v -0.087140000 -0.017603000 -0.004000000
v -0.087140000 -0.017603000 -0.003000000
v -0.084912000 -0.026329000 -0.004000000
v -0.084912000 -0.026329000 -0.003000000
v -0.081813000 -0.034784000 -0.004000000
v -0.081813000 -0.034784000 -0.003000000
v -0.077873000 -0.042883000 -0.004000000
v -0.077873000 -0.042883000 -0.003000000
v -0.073136000 -0.050541000 -0.004000000
v -0.073136000 -0.050541000 -0.003000000
v -0.067647000 -0.057681000 -0.004000000
v -0.067647000 -0.057681000 -0.003000000
v -0.061465000 -0.064228000 -0.004000000
v -0.061465000 -0.064228000 -0.003000000
v -0.054652000 -0.070117000 -0.004000000
v -0.054652000 -0.070117000 -0.003000000
v -0.047278000 -0.075286000 -0.004000000
v -0.047278000 -0.075286000 -0.003000000
v -0.039418000 -0.079683000 -0.004000000
v -0.039418000 -0.079683000 -0.003000000
v -0.031155000 -0.083262000 -0.004000000
v -0.031155000 -0.083262000 -0.003000000
v -0.022571000 -0.085987000 -0.004000000
v -0.022571000 -0.085987000 -0.003000000
v -0.013756000 -0.087829000 -0.004000000
v -0.013756000 -0.087829000 -0.003000000
v -0.004800000 -0.088770000 -0.004000000
v -0.004800000 -0.088770000 -0.003000000
v 0.004205000 -0.088801000 -0.004000000
v 0.004205000 -0.088801000 -0.003000000
v 0.013167000 -0.087919000 -0.004000000
v 0.013167000 -0.087919000 -0.003000000
v 0.021994000 -0.086136000 -0.004000000
v 0.021994000 -0.086136000 -0.003000000
v 0.030596000 -0.083469000 -0.004000000
v 0.030596000 -0.083469000 -0.003000000
v 0.038883000 -0.079946000 -0.004000000
v 0.038883000 -0.079946000 -0.003000000
v 0.046772000 -0.075602000 -0.004000000
v 0.046772000 -0.075602000 -0.003000000
v 0.054180000 -0.070482000 -0.004000000
v 0.054180000 -0.070482000 -0.003000000
v 0.061033000 -0.064639000 -0.004000000
v 0.061033000 -0.064639000 -0.003000000
v 0.067259000 -0.058133000 -0.004000000
v 0.067259000 -0.058133000 -0.003000000
v 0.072795000 -0.051030000 -0.004000000
v 0.072795000 -0.051030000 -0.003000000
v 0.077585000 -0.043404000 -0.004000000
v 0.077585000 -0.043404000 -0.003000000
v 0.081577000 -0.035332000 -0.004000000
v 0.081577000 -0.035332000 -0.003000000
v 0.084733000 -0.026898000 -0.004000000
v 0.084733000 -0.026898000 -0.003000000
v 0.087020000 -0.018187000 -0.004000000
v 0.087020000 -0.018187000 -0.003000000
v 0.088413000 -0.009290000 -0.004000000
v 0.088413000 -0.009290000 -0.003000000
v 0.088900000 -0.000298000 -0.004000000
v 0.088900000 -0.000298000 -0.003000000
v 0.088474000 0.008697000 -0.004000000
v 0.088474000 0.008697000 -0.003000000
v 0.087140000 0.017603000 -0.004000000
v 0.087140000 0.017603000 -0.003000000
v 0.084912000 0.026329000 -0.004000000
v 0.084912000 0.026329000 -0.003000000
v 0.081812000 0.034784000 -0.004000000
v 0.081812000 0.034784000 -0.003000000
v 0.077874000 0.042883000 -0.004000000
v 0.077874000 0.042883000 -0.003000000
v 0.073136000 0.050541000 -0.004000000
v 0.073136000 0.050541000 -0.003000000
v 0.067647000 0.057681000 -0.004000000
v 0.067647000 0.057681000 -0.003000000
v 0.061465000 0.064228000 -0.004000000
v 0.061465000 0.064228000 -0.003000000
v 0.054651000 0.070117000 -0.004000000
v 0.054651000 0.070117000 -0.003000000
v 0.047277000 0.075286000 -0.004000000
v 0.047277000 0.075286000 -0.003000000
v 0.039418000 0.079683000 -0.004000000
v 0.039418000 0.079683000 -0.003000000
v 0.031155000 0.083262000 -0.004000000
v 0.031155000 0.083262000 -0.003000000
v 0.022572000 0.085987000 -0.004000000
v 0.022572000 0.085987000 -0.003000000
v 0.013757000 0.087829000 -0.004000000
v 0.013757000 0.087829000 -0.003000000
v 0.004801000 0.088770000 -0.004000000
v 0.004801000 0.088770000 -0.003000000
v -0.004205000 0.088801000 -0.004000000
v -0.004205000 0.088801000 -0.003000000
v -0.013168000 0.087919000 -0.004000000
v -0.013168000 0.087919000 -0.003000000
v -0.021994000 0.086136000 -0.004000000
v -0.021994000 0.086136000 -0.003000000
v -0.030596000 0.083469000 -0.004000000
v -0.030596000 0.083469000 -0.003000000
v -0.038883000 0.079946000 -0.004000000
v -0.038883000 0.079946000 -0.003000000
v -0.046772000 0.075602000 -0.004000000
v -0.046772000 0.075602000 -0.003000000
v -0.054180000 0.070482000 -0.004000000
v -0.054180000 0.070482000 -0.003000000
v -0.061033000 0.064639000 -0.004000000
v -0.061033000 0.064639000 -0.003000000
v -0.067259000 0.058133000 -0.004000000
v -0.067259000 0.058133000 -0.003000000
v -0.072795000 0.051030000 -0.004000000
v -0.072795000 0.051030000 -0.003000000
v -0.077584000 0.043404000 -0.004000000
v -0.077584000 0.043404000 -0.003000000
v -0.081578000 0.035332000 -0.004000000
v -0.081578000 0.035332000 -0.003000000
v -0.084733000 0.026898000 -0.004000000
v -0.084733000 0.026898000 -0.003000000
v -0.087020000 0.018187000 -0.004000000
v -0.087020000 0.018187000 -0.003000000
v -0.088413000 0.009290000 -0.004000000
v -0.088413000 0.009290000 -0.003000000
v -0.088899000 0.000298000 -0.004000000
v -0.088899000 0.000298000 -0.003000000
v -0.088473000 -0.008697000 -0.004000000
v 0.000000000 0.000000000 -0.004000000
vn -0.688500000 -0.114300000 -0.716200000
vn -0.697700000 -0.068600000 -0.713100000
vn -0.697700000 -0.068600000 0.713100000
vn -0.697500000 -0.021900000 0.716200000
vn -0.697500000 -0.021900000 -0.716200000
vn -0.693400000 0.042900000 -0.719300000
vn -0.693400000 0.042900000 0.719300000
vn -0.684900000 0.116300000 -0.719300000
vn -0.684900000 0.116300000 0.719300000
vn -0.668700000 0.188500000 -0.719300000
vn -0.668700000 0.188500000 0.719300000
vn -0.644800000 0.258500000 -0.719300000
vn -0.644800000 0.258500000 0.719300000
vn -0.613700000 0.325600000 -0.719300000
vn -0.613700000 0.325600000 0.719300000
vn -0.575600000 0.388900000 -0.719300000
vn -0.575600000 0.388900000 0.719300000
vn -0.531000000 0.447900000 -0.719300000
vn -0.531000000 0.447900000 0.719300000
vn -0.480400000 0.501800000 -0.719300000
vn -0.480400000 0.501800000 0.719300000
vn -0.424300000 0.550000000 -0.719300000
vn -0.424300000 0.550000000 0.719300000
vn -0.363500000 0.592100000 -0.719300000
vn -0.363500000 0.592100000 0.719300000
vn -0.298500000 0.627300000 -0.719300000
vn -0.298500000 0.627300000 0.719300000
vn -0.230100000 0.655500000 -0.719300000
vn -0.230100000 0.655500000 0.719300000
vn -0.159100000 0.676200000 -0.719300000
vn -0.159100000 0.676200000 0.719300000
vn -0.086300000 0.689300000 -0.719300000
vn -0.086300000 0.689300000 0.719300000
vn -0.012600000 0.694600000 -0.719300000
vn -0.012600000 0.694600000 0.719300000
vn 0.061300000 0.692000000 -0.719300000
vn 0.061300000 0.692000000 0.719300000
vn 0.134500000 0.681600000 -0.719300000
vn 0.134500000 0.681600000 0.719300000
vn 0.206200000 0.663400000 -0.719300000
vn 0.206200000 0.663400000 0.719300000
vn 0.275600000 0.637700000 -0.719300000
vn 0.275600000 0.637700000 0.719300000
vn 0.341800000 0.604800000 -0.719300000
vn 0.341800000 0.604800000 0.719300000
vn 0.404100000 0.565100000 -0.719300000
vn 0.404100000 0.565100000 0.719300000
vn 0.461900000 0.518900000 -0.719300000
vn 0.461900000 0.518900000 0.719300000
vn 0.514400000 0.466900000 -0.719300000
vn 0.514400000 0.466900000 0.719300000
vn 0.561200000 0.409500000 -0.719300000
vn 0.561200000 0.409500000 0.719300000
vn 0.601500000 0.347600000 -0.719300000
vn 0.601500000 0.347600000 0.719300000
vn 0.635000000 0.281700000 -0.719300000
vn 0.635000000 0.281700000 0.719300000
vn 0.661400000 0.212600000 -0.719300000
vn 0.661400000 0.212600000 0.719300000
vn 0.680200000 0.141100000 -0.719300000
vn 0.680200000 0.141100000 0.719300000
vn 0.691400000 0.068000000 -0.719300000
vn 0.691400000 0.068000000 0.719300000
vn 0.694700000 -0.005900000 -0.719300000
vn 0.694700000 -0.005900000 0.719300000
vn 0.690100000 -0.079700000 -0.719300000
vn 0.690100000 -0.079700000 0.719300000
vn 0.677700000 -0.152600000 -0.719300000
vn 0.677700000 -0.152600000 0.719300000
vn 0.657700000 -0.223800000 -0.719300000
vn 0.657700000 -0.223800000 0.719300000
vn 0.630200000 -0.292400000 -0.719300000
vn 0.630200000 -0.292400000 0.719300000
vn 0.595500000 -0.357700000 -0.719300000
vn 0.595500000 -0.357800000 0.719300000
vn 0.554100000 -0.419000000 -0.719300000
vn 0.554100000 -0.419000000 0.719300000
vn 0.506400000 -0.475500000 -0.719300000
vn 0.506400000 -0.475600000 0.719300000
vn 0.453000000 -0.526700000 -0.719300000
vn 0.453000000 -0.526700000 0.719300000
vn 0.394500000 -0.571900000 -0.719300000
vn 0.394500000 -0.571900000 0.719300000
vn 0.331400000 -0.610600000 -0.719300000
vn 0.331400000 -0.610500000 0.719300000
vn 0.264700000 -0.642300000 -0.719300000
vn 0.264700000 -0.642300000 0.719300000
vn 0.194900000 -0.666800000 -0.719300000
vn 0.194900000 -0.666800000 0.719300000
vn 0.122900000 -0.683800000 -0.719300000
vn 0.122900000 -0.683800000 0.719300000
vn 0.049500000 -0.692900000 -0.719300000
vn 0.049500000 -0.692900000 0.719300000
vn -0.024400000 -0.694300000 -0.719300000
vn -0.024400000 -0.694300000 0.719300000
vn -0.098100000 -0.687800000 -0.719300000
vn -0.098100000 -0.687800000 0.719300000
vn -0.170600000 -0.673400000 -0.719300000
vn -0.170600000 -0.673400000 0.719300000
vn -0.241200000 -0.651500000 -0.719300000
vn -0.241200000 -0.651500000 0.719300000
vn -0.309100000 -0.622200000 -0.719300000
vn -0.309100000 -0.622100000 0.719300000
vn -0.373500000 -0.585800000 -0.719300000
vn -0.373500000 -0.585800000 0.719300000
vn -0.433600000 -0.542800000 -0.719300000
vn -0.433600000 -0.542800000 0.719300000
vn -0.488900000 -0.493600000 -0.719300000
vn -0.488900000 -0.493600000 0.719300000
vn -0.538600000 -0.438800000 -0.719300000
vn -0.538600000 -0.438800000 0.719300000
vn -0.582200000 -0.379100000 -0.719300000
vn -0.582200000 -0.379100000 0.719300000
vn -0.619100000 -0.315100000 -0.719300000
vn -0.619200000 -0.315100000 0.719300000
vn -0.649100000 -0.247500000 -0.719300000
vn -0.649200000 -0.247500000 0.719300000
vn -0.671800000 -0.177100000 -0.719300000
vn -0.671800000 -0.177100000 0.719300000
vn -0.688500000 -0.114300000 0.716200000
vn 0.714700000 0.070300000 -0.695900000
vn 0.718100000 -0.002400000 0.695900000
vn 0.718100000 -0.002400000 -0.695900000
vn 0.714200000 -0.075100000 0.695900000
vn 0.714200000 -0.075100000 -0.695900000
vn 0.703000000 -0.146900000 0.695900000
vn 0.703000000 -0.146900000 -0.695900000
vn 0.684500000 -0.217300000 0.695900000
vn 0.684500000 -0.217300000 -0.695900000
vn 0.659000000 -0.285400000 0.695900000
vn 0.659000000 -0.285400000 -0.695900000
vn 0.626700000 -0.350600000 0.695900000
vn 0.626800000 -0.350600000 -0.695900000
vn 0.588000000 -0.412200000 0.695900000
vn 0.588000000 -0.412200000 -0.695900000
vn 0.543300000 -0.469600000 0.695900000
vn 0.543300000 -0.469600000 -0.695900000
vn 0.493000000 -0.522200000 0.695900000
vn 0.493000000 -0.522200000 -0.695900000
vn 0.437700000 -0.569400000 0.695900000
vn 0.437700000 -0.569400000 -0.695900000
vn 0.377800000 -0.610700000 0.695900000
vn 0.377800000 -0.610700000 -0.695900000
vn 0.314100000 -0.645800000 0.695900000
vn 0.314100000 -0.645800000 -0.695900000
vn 0.247200000 -0.674300000 0.695900000
vn 0.247200000 -0.674300000 -0.695900000
vn 0.177700000 -0.695800000 0.695900000
vn 0.177700000 -0.695800000 -0.695900000
vn 0.106400000 -0.710200000 0.695900000
vn 0.106400000 -0.710200000 -0.695900000
vn 0.034000000 -0.717300000 0.695900000
vn 0.034000000 -0.717300000 -0.695900000
vn -0.038800000 -0.717100000 0.695900000
vn -0.038800000 -0.717100000 -0.695900000
vn -0.111100000 -0.709500000 0.695900000
vn -0.111100000 -0.709500000 -0.695900000
vn -0.182300000 -0.694600000 0.695900000
vn -0.182300000 -0.694600000 -0.695900000
vn -0.251700000 -0.672600000 0.695900000
vn -0.251700000 -0.672600000 -0.695900000
vn -0.318400000 -0.643700000 0.695900000
vn -0.318400000 -0.643700000 -0.695900000
vn -0.381900000 -0.608200000 0.695900000
vn -0.381900000 -0.608200000 -0.695900000
vn -0.441500000 -0.566400000 0.695900000
vn -0.441500000 -0.566400000 -0.695900000
vn -0.496500000 -0.518800000 0.695900000
vn -0.496500000 -0.518800000 -0.695900000
vn -0.546500000 -0.466000000 0.695900000
vn -0.546500000 -0.466000000 -0.695900000
vn -0.590800000 -0.408300000 0.695900000
vn -0.590800000 -0.408300000 -0.695900000
vn -0.629100000 -0.346400000 0.695900000
vn -0.629100000 -0.346400000 -0.695900000
vn -0.660900000 -0.281000000 0.695900000
vn -0.660900000 -0.281000000 -0.695900000
vn -0.685900000 -0.212700000 0.695900000
vn -0.685900000 -0.212700000 -0.695900000
vn -0.703900000 -0.142200000 0.695900000
vn -0.703900000 -0.142200000 -0.695900000
vn -0.714700000 -0.070300000 0.695900000
vn -0.714700000 -0.070300000 -0.695900000
vn -0.718100000 0.002400000 0.695900000
vn -0.718200000 0.002400000 -0.695900000
vn -0.714200000 0.075000000 0.695900000
vn -0.714200000 0.075000000 -0.695900000
vn -0.703000000 0.146900000 0.695900000
vn -0.703000000 0.146900000 -0.695900000
vn -0.684500000 0.217300000 0.695900000
vn -0.684500000 0.217300000 -0.695900000
vn -0.659000000 0.285400000 0.695900000
vn -0.659000000 0.285400000 -0.695900000
vn -0.626700000 0.350600000 0.695900000
vn -0.626700000 0.350600000 -0.695900000
vn -0.588100000 0.412200000 0.695900000
vn -0.588100000 0.412200000 -0.695900000
vn -0.543300000 0.469600000 0.695900000
vn -0.543300000 0.469600000 -0.695900000
vn -0.493000000 0.522200000 0.695900000
vn -0.493000000 0.522200000 -0.695900000
vn -0.437700000 0.569400000 0.695900000
vn -0.437700000 0.569400000 -0.695900000
vn -0.377800000 0.610700000 0.695900000
vn -0.377800000 0.610700000 -0.695900000
vn -0.314100000 0.645800000 0.695900000
vn -0.314100000 0.645800000 -0.695900000
vn -0.247200000 0.674300000 0.695900000
vn -0.247200000 0.674300000 -0.695900000
vn -0.177700000 0.695800000 0.695900000
vn -0.177700000 0.695800000 -0.695900000
vn -0.106400000 0.710200000 0.695900000
vn -0.106400000 0.710200000 -0.695900000
vn -0.034000000 0.717300000 0.695900000
vn -0.034000000 0.717300000 -0.695900000
vn 0.038800000 0.717100000 0.695900000
vn 0.038800000 0.717100000 -0.695900000
vn 0.111100000 0.709500000 0.695900000
vn 0.111100000 0.709500000 -0.695900000
vn 0.182300000 0.694600000 0.695900000
vn 0.182300000 0.694600000 -0.695900000
vn 0.251700000 0.672600000 0.695900000
vn 0.251700000 0.672600000 -0.695900000
vn 0.318400000 0.643700000 0.695900000
vn 0.318400000 0.643700000 -0.695900000
vn 0.381900000 0.608200000 0.695900000
vn 0.381900000 0.608200000 -0.695900000
vn 0.441500000 0.566400000 0.695900000
vn 0.441500000 0.566400000 -0.695900000
vn 0.496500000 0.518900000 0.695900000
vn 0.496500000 0.518900000 -0.695900000
vn 0.546500000 0.466000000 0.695900000
vn 0.546500000 0.466000000 -0.695900000
vn 0.590800000 0.408300000 0.695900000
vn 0.590800000 0.408300000 -0.695900000
vn 0.629100000 0.346400000 0.695900000
vn 0.629100000 0.346400000 -0.695900000
vn 0.660900000 0.281000000 0.695900000
vn 0.660900000 0.281000000 -0.695900000
vn 0.685900000 0.212700000 0.695900000
vn 0.685900000 0.212700000 -0.695900000
vn 0.703900000 0.142200000 0.695900000
vn 0.703900000 0.142200000 -0.695900000
vn 0.714700000 0.070300000 0.695900000
vn 0.000000000 0.000000000 1.000000000
vn 0.034000000 -0.717400000 0.695900000
vn 0.626700000 -0.350600000 -0.695900000
vn 0.626800000 -0.350600000 0.695900000
vn -0.034000000 0.717400000 0.695900000
vn -0.718100000 0.002400000 -0.695900000
vn -0.718200000 0.002400000 0.695900000
vn 0.000000000 0.000000000 -1.000000000
s 1
f 1//1 2//2 3//3
f 3//3 2//2 4//4
f 2//2 5//5 4//4
f 4//4 5//5 6//6
f 4//4 6//6 7//7
f 7//7 6//6 8//8
f 7//7 8//8 9//9
f 9//9 8//8 10//10
f 9//9 10//10 11//11
f 11//11 10//10 12//12
f 11//11 12//12 13//13
f 13//13 12//12 14//14
f 13//13 14//14 15//15
f 15//15 14//14 16//16
f 15//15 16//16 17//17
f 17//17 16//16 18//18
f 17//17 18//18 19//19
f 19//19 18//18 20//20
f 19//19 20//20 21//21
f 21//21 20//20 22//22
f 21//21 22//22 23//23
f 23//23 22//22 24//24
f 23//23 24//24 25//25
f 25//25 24//24 26//26
f 25//25 26//26 27//27
f 27//27 26//26 28//28
f 27//27 28//28 29//29
f 29//29 28//28 30//30
f 29//29 30//30 31//31
f 31//31 30//30 32//32
f 31//31 32//32 33//33
f 33//33 32//32 34//34
f 33//33 34//34 35//35
f 35//35 34//34 36//36
f 35//35 36//36 37//37
f 37//37 36//36 38//38
f 37//37 38//38 39//39
f 39//39 38//38 40//40
f 39//39 40//40 41//41
f 41//41 40//40 42//42
f 41//41 42//42 43//43
f 43//43 42//42 44//44
f 43//43 44//44 45//45
f 45//45 44//44 46//46
f 45//45 46//46 47//47
f 47//47 46//46 48//48
f 47//47 48//48 49//49
f 49//49 48//48 50//50
f 49//49 50//50 51//51
f 51//51 50//50 52//52
f 51//51 52//52 53//53
f 53//53 52//52 54//54
f 53//53 54//54 55//55
f 55//55 54//54 56//56
f 55//55 56//56 57//57
f 57//57 56//56 58//58
f 57//57 58//58 59//59
f 59//59 58//58 60//60
f 59//59 60//60 61//61
f 61//61 60//60 62//62
f 61//61 62//62 63//63
f 63//63 62//62 64//64
f 63//63 64//64 65//65
f 65//65 64//64 66//66
f 65//65 66//66 67//67
f 67//67 66//66 68//68
f 67//67 68//68 69//69
f 69//69 68//68 70//70
f 69//69 70//70 71//71
f 71//71 70//70 72//72
f 71//71 72//72 73//73
f 73//73 72//72 74//74
f 73//73 74//74 75//75
f 75//75 74//74 76//76
f 75//75 76//76 77//77
f 77//77 76//76 78//78
f 77//77 78//78 79//79
f 79//79 78//78 80//80
f 79//79 80//80 81//81
f 81//81 80//80 82//82
f 81//81 82//82 83//83
f 83//83 82//82 84//84
f 83//83 84//84 85//85
f 85//85 84//84 86//86
f 85//85 86//86 87//87
f 87//87 86//86 88//88
f 87//87 88//88 89//89
f 89//89 88//88 90//90
f 89//89 90//90 91//91
f 91//91 90//90 92//92
f 91//91 92//92 93//93
f 93//93 92//92 94//94
f 93//93 94//94 95//95
f 95//95 94//94 96//96
f 95//95 96//96 97//97
f 97//97 96//96 98//98
f 97//97 98//98 99//99
f 99//99 98//98 100//100
f 99//99 100//100 101//101
f 101//101 100//100 102//102
f 101//101 102//102 103//103
f 103//103 102//102 104//104
f 103//103 104//104 105//105
f 105//105 104//104 106//106
f 105//105 106//106 107//107
f 107//107 106//106 108//108
f 107//107 108//108 109//109
f 109//109 108//108 110//110
f 109//109 110//110 111//111
f 111//111 110//110 112//112
f 111//111 112//112 113//113
f 113//113 112//112 114//114
f 113//113 114//114 115//115
f 115//115 114//114 116//116
f 115//115 116//116 117//117
f 117//117 116//116 118//118
f 117//117 118//118 119//119
f 119//119 118//118 1//1
f 119//119 1//1 120//120
f 120//120 1//1 3//3
f 121//121 122//122 123//123
f 123//123 122//122 124//124
f 123//123 124//124 125//125
f 125//125 124//124 126//126
f 125//125 126//126 127//127
f 127//127 126//126 128//128
f 127//127 128//128 129//129
f 129//129 128//128 130//130
f 129//129 130//130 131//131
f 131//131 130//130 132//132
f 131//131 132//132 133//133
f 133//133 132//132 134//134
f 133//133 134//134 135//135
f 135//135 134//134 136//136
f 135//135 136//136 137//137
f 137//137 136//136 138//138
f 137//137 138//138 139//139
f 139//139 138//138 140//140
f 139//139 140//140 141//141
f 141//141 140//140 142//142
f 141//141 142//142 143//143
f 143//143 142//142 144//144
f 143//143 144//144 145//145
f 145//145 144//144 146//146
f 145//145 146//146 147//147
f 147//147 146//146 148//148
f 147//147 148//148 149//149
f 149//149 148//148 150//150
f 149//149 150//150 151//151
f 151//151 150//150 152//152
f 151//151 152//152 153//153
f 153//153 152//152 154//154
f 153//153 154//154 155//155
f 155//155 154//154 156//156
f 155//155 156//156 157//157
f 157//157 156//156 158//158
f 157//157 158//158 159//159
f 159//159 158//158 160//160
f 159//159 160//160 161//161
f 161//161 160//160 162//162
f 161//161 162//162 163//163
f 163//163 162//162 164//164
f 163//163 164//164 165//165
f 165//165 164//164 166//166
f 165//165 166//166 167//167
f 167//167 166//166 168//168
f 167//167 168//168 169//169
f 169//169 168//168 170//170
f 169//169 170//170 171//171
f 171//171 170//170 172//172
f 171//171 172//172 173//173
f 173//173 172//172 174//174
f 173//173 174//174 175//175
f 175//175 174//174 176//176
f 175//175 176//176 177//177
f 177//177 176//176 178//178
f 177//177 178//178 179//179
f 179//179 178//178 180//180
f 179//179 180//180 181//181
f 181//181 180//180 182//182
f 181//181 182//182 183//183
f 183//183 182//182 184//184
f 183//183 184//184 185//185
f 185//185 184//184 186//186
f 185//185 186//186 187//187
f 187//187 186//186 188//188
f 187//187 188//188 189//189
f 189//189 188//188 190//190
f 189//189 190//190 191//191
f 191//191 190//190 192//192
f 191//191 192//192 193//193
f 193//193 192//192 194//194
f 193//193 194//194 195//195
f 195//195 194//194 196//196
f 195//195 196//196 197//197
f 197//197 196//196 198//198
f 197//197 198//198 199//199
f 199//199 198//198 200//200
f 199//199 200//200 201//201
f 201//201 200//200 202//202
f 201//201 202//202 203//203
f 203//203 202//202 204//204
f 203//203 204//204 205//205
f 205//205 204//204 206//206
f 205//205 206//206 207//207
f 207//207 206//206 208//208
f 207//207 208//208 209//209
f 209//209 208//208 210//210
f 209//209 210//210 211//211
f 211//211 210//210 212//212
f 211//211 212//212 213//213
f 213//213 212//212 214//214
f 213//213 214//214 215//215
f 215//215 214//214 216//216
f 215//215 216//216 217//217
f 217//217 216//216 218//218
f 217//217 218//218 219//219
f 219//219 218//218 220//220
f 219//219 220//220 221//221
f 221//221 220//220 222//222
f 221//221 222//222 223//223
f 223//223 222//222 224//224
f 223//223 224//224 225//225
f 225//225 224//224 226//226
f 225//225 226//226 227//227
f 227//227 226//226 228//228
f 227//227 228//228 229//229
f 229//229 228//228 230//230
f 229//229 230//230 231//231
f 231//231 230//230 232//232
f 231//231 232//232 233//233
f 233//233 232//232 234//234
f 233//233 234//234 235//235
f 235//235 234//234 236//236
f 235//235 236//236 237//237
f 237//237 236//236 238//238
f 237//237 238//238 239//239
f 239//239 238//238 240//240
f 239//239 240//240 241//241
f 241//241 240//240 242//242
f 241//241 242//242 243//243
f 243//243 242//242 244//244
f 243//243 244//244 121//121
f 121//121 244//244 122//122
f 182//182 180//180 245//245
f 182//182 245//245 184//184
f 190//190 188//188 245//245
f 245//245 188//188 186//186
f 245//245 186//186 184//184
f 196//196 194//194 245//245
f 245//245 194//194 192//192
f 245//245 192//192 190//190
f 202//202 200//200 245//245
f 245//245 200//200 198//198
f 245//245 198//198 196//196
f 208//208 206//206 245//245
f 245//245 206//206 204//204
f 245//245 204//204 202//202
f 214//214 212//212 245//245
f 245//245 212//212 210//210
f 245//245 210//210 208//208
f 220//220 218//218 245//245
f 245//245 218//218 216//216
f 245//245 216//216 214//214
f 226//226 224//224 245//245
f 245//245 224//224 222//222
f 245//245 222//222 220//220
f 232//232 230//230 245//245
f 245//245 230//230 228//228
f 245//245 228//228 226//226
f 238//238 236//236 245//245
f 245//245 236//236 234//234
f 245//245 234//234 232//232
f 244//244 242//242 245//245
f 245//245 242//242 240//240
f 245//245 240//240 238//238
f 126//126 124//124 245//245
f 245//245 124//124 122//122
f 245//245 122//122 244//244
f 132//132 130//130 245//245
f 245//245 130//130 128//128
f 245//245 128//128 126//126
f 138//138 136//136 245//245
f 245//245 136//136 134//134
f 245//245 134//134 132//132
f 144//144 142//142 245//245
f 245//245 142//142 140//140
f 245//245 140//140 138//138
f 150//150 148//148 245//245
f 245//245 148//148 146//146
f 245//245 146//146 144//144
f 156//156 154//154 245//245
f 245//245 154//154 152//152
f 245//245 152//152 150//150
f 162//162 160//160 245//245
f 245//245 160//160 158//158
f 245//245 158//158 156//156
f 168//168 166//166 245//245
f 245//245 166//166 164//164
f 245//245 164//164 162//162
f 174//174 172//172 245//245
f 245//245 172//172 170//170
f 245//245 170//170 168//168
f 180//180 178//178 245//245
f 245//245 178//178 176//176
f 245//245 176//176 174//174
f 80//80 141//141 82//82
f 82//82 141//141 143//143
f 82//82 143//143 84//84
f 84//84 143//143 145//145
f 84//84 145//145 86//86
f 86//86 145//145 147//147
f 86//86 147//147 88//88
f 88//88 147//147 149//149
f 88//88 149//149 90//90
f 90//90 149//149 151//151
f 90//90 151//151 92//92
f 92//92 151//151 153//153
f 92//92 153//153 94//94
f 94//94 153//153 155//155
f 94//94 155//155 96//96
f 96//96 155//155 157//157
f 96//96 157//157 98//98
f 98//98 157//157 159//159
f 98//98 159//159 100//100
f 100//100 159//159 161//161
f 100//100 161//161 102//102
f 102//102 161//161 163//163
f 102//102 163//163 104//104
f 104//104 163//163 165//165
f 104//104 165//165 106//106
f 106//106 165//165 167//167
f 106//106 167//167 108//108
f 108//108 167//167 169//169
f 108//108 169//169 110//110
f 110//110 169//169 171//171
f 110//110 171//171 112//112
f 112//112 171//171 173//173
f 112//112 173//173 114//114
f 114//114 173//173 175//175
f 114//114 175//175 116//116
f 116//116 175//175 177//177
f 116//116 177//177 118//118
f 118//118 177//177 179//179
f 118//118 179//179 1//1
f 1//1 179//179 181//181
f 1//1 181//181 2//2
f 2//2 181//181 183//183
f 2//2 183//183 5//5
f 5//5 183//183 185//185
f 5//5 185//185 6//6
f 6//6 185//185 187//187
f 6//6 187//187 8//8
f 8//8 187//187 189//189
f 8//8 189//189 10//10
f 10//10 189//189 191//191
f 10//10 191//191 12//12
f 12//12 191//191 193//193
f 12//12 193//193 14//14
f 14//14 193//193 195//195
f 14//14 195//195 16//16
f 16//16 195//195 197//197
f 16//16 197//197 18//18
f 18//18 197//197 199//199
f 18//18 199//199 20//20
f 20//20 199//199 201//201
f 20//20 201//201 22//22
f 22//22 201//201 203//203
f 22//22 203//203 24//24
f 24//24 203//203 205//205
f 24//24 205//205 26//26
f 26//26 205//205 207//207
f 26//26 207//207 28//28
f 28//28 207//207 209//209
f 28//28 209//209 30//30
f 30//30 209//209 211//211
f 30//30 211//211 32//32
f 32//32 211//211 213//213
f 32//32 213//213 34//34
f 34//34 213//213 215//215
f 34//34 215//215 36//36
f 36//36 215//215 217//217
f 36//36 217//217 38//38
f 38//38 217//217 219//219
f 38//38 219//219 40//40
f 40//40 219//219 221//221
f 40//40 221//221 42//42
f 221//221 223//223 42//42
f 42//42 223//223 225//225
f 42//42 225//225 44//44
f 44//44 225//225 227//227
f 44//44 227//227 46//46
f 46//46 227//227 229//229
f 46//46 229//229 48//48
f 48//48 229//229 231//231
f 48//48 231//231 50//50
f 50//50 231//231 233//233
f 50//50 233//233 52//52
f 52//52 233//233 235//235
f 52//52 235//235 54//54
f 54//54 235//235 237//237
f 54//54 237//237 56//56
f 56//56 237//237 239//239
f 56//56 239//239 58//58
f 58//58 239//239 241//241
f 58//58 241//241 60//60
f 60//60 241//241 243//243
f 60//60 243//243 62//62
f 62//62 243//243 121//121
f 62//62 121//121 64//64
f 64//64 121//121 123//123
f 64//64 123//123 66//66
f 66//66 123//123 125//125
f 66//66 125//125 68//68
f 68//68 125//125 127//127
f 68//68 127//127 70//70
f 70//70 127//127 129//129
f 70//70 129//129 72//72
f 72//72 129//129 131//131
f 72//72 131//131 74//74
f 74//74 131//131 133//133
f 74//74 133//133 76//76
f 76//76 133//133 135//135
f 76//76 135//135 78//78
f 78//78 135//135 137//137
f 78//78 137//137 80//80
f 80//80 137//137 139//139
f 80//80 139//139 141//141
f 246//182 247//181 248//180
f 248//180 247//181 249//179
f 248//180 249//179 250//178
f 250//178 249//179 251//177
f 250//178 251//177 252//176
f 252//176 251//177 253//175
f 252//176 253//175 254//174
f 254//174 253//175 255//173
f 254//174 255//173 256//172
f 256//172 255//173 257//171
f 256//172 257//171 258//170
f 258//170 257//171 259//169
f 258//170 259//169 260//168
f 260//168 259//169 261//167
f 260//168 261//167 262//166
f 262//166 261//167 263//165
f 262//166 263//165 264//164
f 264//164 263//165 265//163
f 264//164 265//163 266//162
f 266//162 265//163 267//161
f 266//162 267//161 268//160
f 268//160 267//161 269//159
f 268//160 269//159 270//158
f 270//158 269//159 271//157
f 270//158 271//157 272//156
f 272//156 271//157 273//155
f 272//156 273//155 274//154
f 274//154 273//155 275//153
f 274//154 275//153 276//246
f 276//246 275//153 277//151
f 276//246 277//151 278//150
f 278//150 277//151 279//149
f 278//150 279//149 280//148
f 280//148 279//149 281//147
f 280//148 281//147 282//146
f 282//146 281//147 283//145
f 282//146 283//145 284//144
f 284//144 283//145 285//143
f 284//144 285//143 286//142
f 286//142 285//143 287//141
f 286//142 287//141 288//140
f 288//140 287//141 289//139
f 288//140 289//139 290//138
f 290//138 289//139 291//137
f 290//138 291//137 292//136
f 292//136 291//137 293//135
f 292//136 293//135 294//134
f 294//134 293//135 295//247
f 294//134 295//247 296//248
f 296//248 295//247 297//131
f 296//248 297//131 298//130
f 298//130 297//131 299//129
f 298//130 299//129 300//128
f 300//128 299//129 301//127
f 300//128 301//127 302//126
f 302//126 301//127 303//125
f 302//126 303//125 304//124
f 304//124 303//125 305//123
f 304//124 305//123 306//122
f 306//122 305//123 307//121
f 306//122 307//121 308//244
f 308//244 307//121 309//243
f 308//244 309//243 310//242
f 310//242 309//243 311//241
f 310//242 311//241 312//240
f 312//240 311//241 313//239
f 312//240 313//239 314//238
f 314//238 313//239 315//237
f 314//238 315//237 316//236
f 316//236 315//237 317//235
f 316//236 317//235 318//234
f 318//234 317//235 319//233
f 318//234 319//233 320//232
f 320//232 319//233 321//231
f 320//232 321//231 322//230
f 322//230 321//231 323//229
f 322//230 323//229 324//228
f 324//228 323//229 325//227
f 324//228 325//227 326//226
f 326//226 325//227 327//225
f 326//226 327//225 328//224
f 328//224 327//225 329//223
f 328//224 329//223 330//222
f 330//222 329//223 331//221
f 330//222 331//221 332//220
f 332//220 331//221 333//219
f 332//220 333//219 334//218
f 334//218 333//219 335//217
f 334//218 335//217 336//216
f 336//216 335//217 337//215
f 336//216 337//215 338//249
f 338//249 337//215 339//213
f 338//249 339//213 340//212
f 340//212 339//213 341//211
f 340//212 341//211 342//210
f 342//210 341//211 343//209
f 342//210 343//209 344//208
f 344//208 343//209 345//207
f 344//208 345//207 346//206
f 346//206 345//207 347//205
f 346//206 347//205 348//204
f 348//204 347//205 349//203
f 348//204 349//203 350//202
f 350//202 349//203 351//201
f 350//202 351//201 352//200
f 352//200 351//201 353//199
f 352//200 353//199 354//198
f 354//198 353//199 355//197
f 354//198 355//197 356//196
f 356//196 355//197 357//195
f 356//196 357//195 358//194
f 358//194 357//195 359//193
f 358//194 359//193 360//192
f 360//192 359//193 361//191
f 360//192 361//191 362//190
f 362//190 361//191 363//189
f 362//190 363//189 364//188
f 364//188 363//189 365//187
f 364//188 365//187 366//186
f 366//186 365//187 367//250
f 366//186 367//250 368//251
f 368//251 367//250 369//183
f 368//251 369//183 246//182
f 246//182 369//183 247//181
f 369//183 367//250 370//252
f 369//183 370//252 247//181
f 253//175 251//177 370//252
f 370//252 251//177 249//179
f 370//252 249//179 247//181
f 259//169 257//171 370//252
f 370//252 257//171 255//173
f 370//252 255//173 253//175
f 265//163 263//165 370//252
f 370//252 263//165 261//167
f 370//252 261//167 259//169
f 271//157 269//159 370//252
f 370//252 269//159 267//161
f 370//252 267//161 265//163
f 277//151 275//153 370//252
f 370//252 275//153 273//155
f 370//252 273//155 271//157
f 283//145 281//147 370//252
f 370//252 281//147 279//149
f 370//252 279//149 277//151
f 289//139 287//141 370//252
f 370//252 287//141 285//143
f 370//252 285//143 283//145
f 295//247 293//135 370//252
f 370//252 293//135 291//137
f 370//252 291//137 289//139
f 301//127 299//129 370//252
f 370//252 299//129 297//131
f 370//252 297//131 295//247
f 307//121 305//123 370//252
f 370//252 305//123 303//125
f 370//252 303//125 301//127
f 313//239 311//241 370//252
f 370//252 311//241 309//243
f 370//252 309//243 307//121
f 319//233 317//235 370//252
f 370//252 317//235 315//237
f 370//252 315//237 313//239
f 325//227 323//229 370//252
f 370//252 323//229 321//231
f 370//252 321//231 319//233
f 331//221 329//223 370//252
f 370//252 329//223 327//225
f 370//252 327//225 325//227
f 337//215 335//217 370//252
f 370//252 335//217 333//219
f 370//252 333//219 331//221
f 343//209 341//211 370//252
f 370//252 341//211 339//213
f 370//252 339//213 337//215
f 349//203 347//205 370//252
f 370//252 347//205 345//207
f 370//252 345//207 343//209
f 355//197 353//199 370//252
f 370//252 353//199 351//201
f 370//252 351//201 349//203
f 361//191 359//193 370//252
f 370//252 359//193 357//195
f 370//252 357//195 355//197
f 367//250 365//187 370//252
f 370//252 365//187 363//189
f 370//252 363//189 361//191
f 83//83 288//140 81//81
f 81//81 288//140 290//138
f 81//81 290//138 79//79
f 79//79 290//138 292//136
f 79//79 292//136 77//77
f 77//77 292//136 294//134
f 77//77 294//134 75//75
f 75//75 294//134 296//248
f 75//75 296//248 73//73
f 73//73 296//248 298//130
f 73//73 298//130 71//71
f 71//71 298//130 300//128
f 71//71 300//128 69//69
f 69//69 300//128 302//126
f 69//69 302//126 67//67
f 67//67 302//126 304//124
f 67//67 304//124 65//65
f 65//65 304//124 306//122
f 65//65 306//122 63//63
f 63//63 306//122 308//244
f 63//63 308//244 61//61
f 61//61 308//244 310//242
f 61//61 310//242 59//59
f 59//59 310//242 312//240
f 59//59 312//240 57//57
f 57//57 312//240 314//238
f 57//57 314//238 55//55
f 55//55 314//238 316//236
f 55//55 316//236 53//53
f 53//53 316//236 318//234
f 53//53 318//234 51//51
f 51//51 318//234 320//232
f 51//51 320//232 49//49
f 49//49 320//232 322//230
f 49//49 322//230 47//47
f 47//47 322//230 324//228
f 47//47 324//228 45//45
f 324//228 326//226 45//45
f 45//45 326//226 328//224
f 45//45 328//224 43//43
f 43//43 328//224 330//222
f 43//43 330//222 41//41
f 41//41 330//222 332//220
f 41//41 332//220 39//39
f 39//39 332//220 334//218
f 39//39 334//218 37//37
f 37//37 334//218 336//216
f 37//37 336//216 35//35
f 35//35 336//216 338//249
f 35//35 338//249 33//33
f 33//33 338//249 340//212
f 33//33 340//212 31//31
f 31//31 340//212 342//210
f 31//31 342//210 29//29
f 29//29 342//210 344//208
f 29//29 344//208 27//27
f 27//27 344//208 346//206
f 27//27 346//206 25//25
f 25//25 346//206 348//204
f 25//25 348//204 23//23
f 23//23 348//204 350//202
f 23//23 350//202 21//21
f 21//21 350//202 352//200
f 21//21 352//200 19//19
f 19//19 352//200 354//198
f 19//19 354//198 17//17
f 17//17 354//198 356//196
f 17//17 356//196 15//15
f 15//15 356//196 358//194
f 15//15 358//194 13//13
f 13//13 358//194 360//192
f 13//13 360//192 11//11
f 11//11 360//192 362//190
f 11//11 362//190 9//9
f 9//9 362//190 364//188
f 9//9 364//188 7//7
f 7//7 364//188 366//186
f 7//7 366//186 4//4
f 4//4 366//186 368//251
f 4//4 368//251 3//3
f 3//3 368//251 246//182
f 3//3 246//182 120//120
f 120//120 246//182 248//180
f 120//120 248//180 119//119
f 119//119 248//180 250//178
f 119//119 250//178 117//117
f 117//117 250//178 252//176
f 117//117 252//176 115//115
f 115//115 252//176 254//174
f 115//115 254//174 113//113
f 113//113 254//174 256//172
f 113//113 256//172 111//111
f 111//111 256//172 258//170
f 111//111 258//170 109//109
f 109//109 258//170 260//168
f 109//109 260//168 107//107
f 107//107 260//168 262//166
f 107//107 262//166 105//105
f 105//105 262//166 264//164
f 105//105 264//164 103//103
f 103//103 264//164 266//162
f 103//103 266//162 101//101
f 101//101 266//162 268//160
f 101//101 268//160 99//99
f 99//99 268//160 270//158
f 99//99 270//158 97//97
f 97//97 270//158 272//156
f 97//97 272//156 95//95
f 95//95 272//156 274//154
f 95//95 274//154 93//93
f 93//93 274//154 276//246
f 93//93 276//246 91//91
f 91//91 276//246 278//150
f 91//91 278//150 89//89
f 89//89 278//150 280//148
f 89//89 280//148 87//87
f 87//87 280//148 282//146
f 87//87 282//146 85//85
f 85//85 282//146 284//144
f 85//85 284//144 83//83
f 83//83 284//144 286//142
f 83//83 286//142 288//140
